<mxfile host="app.diagrams.net" agent="Mozilla/5.0 (Macintosh; Intel Mac OS X 10_15_7) AppleWebKit/605.1.15 (KHTML, like Gecko) Version/16.6 Safari/605.1.15" version="25.0.3">
  <diagram name="Trang-1" id="Ic_6IBqflgvEff83gMx8">
    <mxGraphModel dx="954" dy="623" grid="1" gridSize="10" guides="1" tooltips="1" connect="1" arrows="1" fold="1" page="1" pageScale="1" pageWidth="827" pageHeight="1169" math="0" shadow="0">
      <root>
        <mxCell id="0" />
        <mxCell id="1" parent="0" />
        <mxCell id="W8wq9E3jOlAvUwIORAxE-1" value="Start" style="ellipse;whiteSpace=wrap;html=1;" vertex="1" parent="1">
          <mxGeometry x="10" y="340" width="120" height="80" as="geometry" />
        </mxCell>
        <mxCell id="W8wq9E3jOlAvUwIORAxE-2" value="Input a, b, tong" style="shape=parallelogram;perimeter=parallelogramPerimeter;whiteSpace=wrap;html=1;fixedSize=1;" vertex="1" parent="1">
          <mxGeometry x="10" y="470" width="120" height="60" as="geometry" />
        </mxCell>
        <mxCell id="W8wq9E3jOlAvUwIORAxE-11" value="" style="endArrow=classic;html=1;rounded=0;exitX=0.5;exitY=1;exitDx=0;exitDy=0;entryX=0.5;entryY=0;entryDx=0;entryDy=0;" edge="1" parent="1" source="W8wq9E3jOlAvUwIORAxE-2">
          <mxGeometry width="50" height="50" relative="1" as="geometry">
            <mxPoint x="146" y="660" as="sourcePoint" />
            <mxPoint x="70" y="580" as="targetPoint" />
          </mxGeometry>
        </mxCell>
        <mxCell id="W8wq9E3jOlAvUwIORAxE-12" value="" style="endArrow=classic;html=1;rounded=0;exitX=0.5;exitY=1;exitDx=0;exitDy=0;entryX=0.5;entryY=0;entryDx=0;entryDy=0;" edge="1" parent="1" source="W8wq9E3jOlAvUwIORAxE-1" target="W8wq9E3jOlAvUwIORAxE-2">
          <mxGeometry width="50" height="50" relative="1" as="geometry">
            <mxPoint x="146" y="660" as="sourcePoint" />
            <mxPoint x="196" y="610" as="targetPoint" />
          </mxGeometry>
        </mxCell>
        <mxCell id="W8wq9E3jOlAvUwIORAxE-6" value="End" style="ellipse;whiteSpace=wrap;html=1;" vertex="1" parent="1">
          <mxGeometry x="10" y="870" width="120" height="80" as="geometry" />
        </mxCell>
        <mxCell id="W8wq9E3jOlAvUwIORAxE-65" style="edgeStyle=orthogonalEdgeStyle;rounded=0;orthogonalLoop=1;jettySize=auto;html=1;exitX=0.5;exitY=1;exitDx=0;exitDy=0;entryX=0.5;entryY=0;entryDx=0;entryDy=0;" edge="1" parent="1" source="W8wq9E3jOlAvUwIORAxE-63" target="W8wq9E3jOlAvUwIORAxE-64">
          <mxGeometry relative="1" as="geometry" />
        </mxCell>
        <mxCell id="W8wq9E3jOlAvUwIORAxE-63" value="Tong = a + b" style="rounded=1;whiteSpace=wrap;html=1;" vertex="1" parent="1">
          <mxGeometry x="10" y="584.5" width="120" height="60" as="geometry" />
        </mxCell>
        <mxCell id="W8wq9E3jOlAvUwIORAxE-66" style="edgeStyle=orthogonalEdgeStyle;rounded=0;orthogonalLoop=1;jettySize=auto;html=1;exitX=0.5;exitY=1;exitDx=0;exitDy=0;entryX=0.5;entryY=0;entryDx=0;entryDy=0;" edge="1" parent="1" source="W8wq9E3jOlAvUwIORAxE-64" target="W8wq9E3jOlAvUwIORAxE-6">
          <mxGeometry relative="1" as="geometry" />
        </mxCell>
        <mxCell id="W8wq9E3jOlAvUwIORAxE-64" value="Output tong" style="shape=parallelogram;perimeter=parallelogramPerimeter;whiteSpace=wrap;html=1;fixedSize=1;" vertex="1" parent="1">
          <mxGeometry x="10" y="710" width="120" height="60" as="geometry" />
        </mxCell>
      </root>
    </mxGraphModel>
  </diagram>
</mxfile>
